<svg width="32" height="30" viewBox="0 0 32 30" fill="none" xmlns="http://www.w3.org/2000/svg">
<path fill-rule="evenodd" clip-rule="evenodd" d="M16.0359 0C7.67892 0 0.910156 6.7125 0.910156 15C0.910156 21.6375 5.2399 27.2437 11.2524 29.2313C12.0087 29.3625 12.2923 28.9125 12.2923 28.5188C12.2923 28.1625 12.2734 26.9813 12.2734 25.725C8.47302 26.4188 7.48985 24.8062 7.18734 23.9625C7.01717 23.5312 6.27979 22.2 5.63695 21.8438C5.10755 21.5625 4.35126 20.8687 5.61804 20.85C6.80919 20.8313 7.66001 21.9375 7.94362 22.3875C9.30494 24.6562 11.4793 24.0187 12.349 23.625C12.4813 22.65 12.8784 21.9937 13.3133 21.6187C9.94778 21.2437 6.43105 19.95 6.43105 14.2125C6.43105 12.5813 7.01717 11.2313 7.98144 10.1813C7.83018 9.80625 7.30078 8.26875 8.13269 6.20625C8.13269 6.20625 9.39947 5.8125 12.2923 7.74375C13.5023 7.40625 14.788 7.2375 16.0737 7.2375C17.3594 7.2375 18.6451 7.40625 19.8551 7.74375C22.7479 5.79375 24.0147 6.20625 24.0147 6.20625C24.8466 8.26875 24.3172 9.80625 24.166 10.1813C25.1302 11.2313 25.7164 12.5625 25.7164 14.2125C25.7164 19.9688 22.1807 21.2437 18.8152 21.6187C19.3635 22.0875 19.8362 22.9875 19.8362 24.3937C19.8362 26.4 19.8173 28.0125 19.8173 28.5188C19.8173 28.9125 20.1009 29.3813 20.8572 29.2313C23.8599 28.2259 26.4691 26.3121 28.3176 23.7592C30.166 21.2063 31.1607 18.1429 31.1616 15C31.1616 6.7125 24.3929 0 16.0359 0Z" fill="#A7A7A7"/>
</svg>
