<svg width="31" height="30" viewBox="0 0 31 30" fill="none" xmlns="http://www.w3.org/2000/svg">
<path d="M15.8742 0.599976C7.85456 0.599976 1.35352 7.04698 1.35352 15C1.35352 22.953 7.85456 29.4 15.8742 29.4C23.8939 29.4 30.3949 22.953 30.3949 15C30.3949 7.04698 23.8939 0.599976 15.8742 0.599976ZM12.3197 20.9685H9.37923V11.5845H12.3197V20.9685ZM10.8313 10.4325C9.90258 10.4325 9.30209 9.77997 9.30209 8.97297C9.30209 8.14948 9.92073 7.51648 10.8691 7.51648C11.8175 7.51648 12.3983 8.14948 12.4165 8.97297C12.4165 9.77997 11.8175 10.4325 10.8313 10.4325ZM23.0589 20.9685H20.1185V15.768C20.1185 14.5575 19.692 13.7355 18.6286 13.7355C17.8164 13.7355 17.3339 14.292 17.1206 14.8275C17.0419 15.018 17.0223 15.288 17.0223 15.5565V20.967H14.0803V14.577C14.0803 13.4055 14.0425 12.426 14.0032 11.583H16.5579L16.6925 12.8865H16.7515C17.1387 12.2745 18.0871 11.3715 19.6738 11.3715C21.6084 11.3715 23.0589 12.657 23.0589 15.42V20.9685Z" fill="#A7A7A7"/>
</svg>
