<svg width="33" height="32" viewBox="0 0 33 32" fill="none" xmlns="http://www.w3.org/2000/svg">
<path d="M17.3457 1.875C8.99279 1.875 2.21997 8.59152 2.21997 16.875C2.21997 25.1585 8.99279 31.875 17.3457 31.875C25.6986 31.875 32.4714 25.1585 32.4714 16.875C32.4714 8.59152 25.6986 1.875 17.3457 1.875ZM24.6148 13.1819C24.625 13.3393 24.625 13.5033 24.625 13.6641C24.625 18.5792 20.8503 24.2411 13.9525 24.2411C11.8255 24.2411 9.85374 23.6283 8.19261 22.5737C8.49647 22.6071 8.78683 22.6205 9.09745 22.6205C10.8531 22.6205 12.467 22.0312 13.7533 21.0335C12.1057 21 10.7214 19.9286 10.2488 18.4554C10.8261 18.5391 11.3461 18.5391 11.9403 18.3884C11.0919 18.2175 10.3294 17.7605 9.78222 17.0953C9.23506 16.43 8.93703 15.5973 8.93877 14.7388V14.692C9.43508 14.9699 10.0192 15.1406 10.6303 15.1641C10.1166 14.8245 9.69525 14.3645 9.40372 13.8249C9.11219 13.2852 8.95944 12.6825 8.95902 12.0703C8.95902 11.3772 9.14134 10.7444 9.46884 10.1953C10.4105 11.3449 11.5855 12.2851 12.9176 12.9548C14.2497 13.6245 15.7089 14.0088 17.2005 14.0826C16.6704 11.5547 18.5747 9.50893 20.8638 9.50893C21.9442 9.50893 22.9166 9.95759 23.6019 10.6808C24.4494 10.5234 25.2597 10.2087 25.9822 9.78683C25.702 10.6473 25.1145 11.3739 24.3346 11.8326C25.0909 11.7522 25.8202 11.5446 26.4954 11.2533C25.9856 11.9967 25.3475 12.6562 24.6148 13.1819Z" fill="#A7A7A7"/>
</svg>
