<svg width="21" height="18" viewBox="0 0 21 18" fill="none" xmlns="http://www.w3.org/2000/svg">
<path d="M11.851 7.84197C11.1343 7.2279 10.1624 6.88293 9.14902 6.88293C8.13564 6.88293 7.16374 7.2279 6.44702 7.84197L3.74414 10.158C3.02741 10.7723 2.62476 11.6055 2.62476 12.4743C2.62476 13.3432 3.02741 14.1764 3.74414 14.7907C4.46087 15.4051 5.43297 15.7502 6.44658 15.7502C7.46019 15.7502 8.43229 15.4051 9.14902 14.7907L10.5 13.6327" stroke="#FCFCFC" stroke-width="1.66667" stroke-linecap="round" stroke-linejoin="round"/>
<path d="M9.14905 10.158C9.86577 10.7721 10.8377 11.117 11.851 11.117C12.8644 11.117 13.8363 10.7721 14.553 10.158L17.2559 7.84198C17.9727 7.22764 18.3753 6.39441 18.3753 5.5256C18.3753 4.6568 17.9727 3.82357 17.2559 3.20923C16.5392 2.59489 15.5671 2.24976 14.5535 2.24976C13.5399 2.24976 12.5678 2.59489 11.851 3.20923L10.5 4.36723" stroke="#FCFCFC" stroke-width="1.66667" stroke-linecap="round" stroke-linejoin="round"/>
</svg>
